<?xml version="1.0" encoding="UTF-8" standalone="no"?>
<!DOCTYPE svg PUBLIC "-//W3C//DTD SVG 1.1//EN" "http://www.w3.org/Graphics/SVG/1.1/DTD/svg11.dtd">
<svg width="100%" height="100%" viewBox="0 0 512 512" version="1.1" xmlns="http://www.w3.org/2000/svg" xmlns:xlink="http://www.w3.org/1999/xlink" xml:space="preserve" style="fill-rule:evenodd;clip-rule:evenodd;stroke-linejoin:round;stroke-miterlimit:1.41421;">
    <g transform="matrix(1.07275,0.256031,-0.256031,1.07275,19.3627,-91.7746)">
        <g transform="matrix(1.49238e-17,0.243725,-0.243725,1.49238e-17,659.112,-1.53027)">
            <path d="M568.9,1602.7C379.3,1593.5 256.6,1437.2 254.4,1258.2C252.3,1087.1 388.8,920.4 574.1,917.6C742,915 905.4,1038 1062.6,1040.4C1242,1034.3 1345.9,912.3 1537.7,915.7C1708.9,914.9 1857.8,1092.7 1858.9,1246.3C1860.2,1408.8 1753.2,1594.8 1524.6,1601.2C1360.2,1604.9 1203.3,1481.6 1062.6,1479.1C872.7,1499.2 738.4,1611 568.9,1602.7L568.9,1602.7ZM755.5,1259.7C756.7,1167.7 688.6,1096.2 592.1,1096.2C497.1,1096.2 428.7,1170.6 428.7,1259.7C428.6,1349.4 505.4,1425.5 595.1,1423.3C681.9,1421.1 754.3,1354.1 755.5,1259.7ZM1686.5,1259.7C1686.2,1170.7 1624.1,1096.2 1523.1,1096.2C1428.1,1096.2 1356.6,1167.7 1359.7,1259.7C1362.8,1352.4 1430.4,1422.3 1526.1,1423.3C1623.4,1424.2 1686.8,1354.1 1686.5,1259.7Z" style="fill:white;fill-rule:nonzero;"/>
        </g>
        <path d="M233.741,149.06C233.534,188.954 256.975,226.713 265.953,258.649C238.883,284.613 223.651,316.073 192.341,332.279C151.264,353.565 106.265,335.661 83.876,298.214C62.475,262.419 70.817,210.574 109.519,187.286C144.578,166.172 194.074,172.074 227.491,153.324C229.675,151.954 231.754,150.53 233.741,149.06ZM189.645,237.15C178.629,217.617 155.521,210.893 135.188,222.714C115.171,234.35 109.872,258.405 120.786,277.18C131.752,296.092 157.256,302.72 175.887,291.269C193.907,280.173 200.955,257.187 189.645,237.15Z" style="fill:white;"/>
    </g>
</svg>
