<?xml version="1.0" standalone="no"?>
<!DOCTYPE svg PUBLIC "-//W3C//DTD SVG 20010904//EN"
 "http://www.w3.org/TR/2001/REC-SVG-20010904/DTD/svg10.dtd">
<svg version="1.0" xmlns="http://www.w3.org/2000/svg"
 width="512.000000pt" height="512.000000pt" viewBox="0 0 512.000000 512.000000"
 preserveAspectRatio="xMidYMid meet">
<metadata>
Created by potrace 1.14, written by Peter Selinger 2001-2017
</metadata>
<g transform="translate(0.000000,512.000000) scale(0.100000,-0.100000)"
fill="#000000" stroke="none">
<path d="M0 2560 l0 -2560 2560 0 2560 0 0 2560 0 2560 -2560 0 -2560 0 0
-2560z m3863 1916 c161 -48 287 -124 407 -245 254 -256 327 -609 194 -942 -49
-124 -106 -224 -276 -481 -242 -368 -302 -500 -317 -701 -10 -138 -1 -260 40
-498 58 -342 49 -593 -27 -785 -53 -135 -165 -274 -300 -370 -77 -55 -226
-126 -324 -154 -104 -30 -318 -38 -412 -16 -375 88 -668 383 -729 732 -16 94
-6 310 19 399 46 165 118 302 298 560 227 326 287 443 306 592 14 117 4 331
-27 578 -47 372 -44 570 12 750 95 305 339 528 653 596 130 29 363 21 483 -15z
m-1546 -658 c-42 -168 -35 -457 21 -843 23 -154 42 -305 44 -337 l3 -56 -93
-61 c-51 -34 -173 -122 -272 -196 -276 -208 -393 -277 -558 -329 -356 -112
-724 2 -957 297 -139 175 -215 388 -215 602 0 350 192 665 493 809 201 96 366
112 864 80 145 -9 290 -13 348 -9 109 7 232 29 280 50 43 19 48 18 42 -7z"/>
<path d="M3478 4021 c-121 -40 -217 -125 -271 -239 -58 -124 -47 -293 27 -410
90 -142 281 -228 449 -201 123 20 217 82 288 191 80 125 93 304 30 432 -44 89
-116 160 -209 204 -64 30 -85 35 -165 39 -71 2 -105 -1 -149 -16z"/>
<path d="M2947 1600 c-110 -19 -226 -95 -286 -189 -199 -310 -1 -674 369 -676
151 0 268 58 347 174 63 91 87 180 81 296 -4 76 -11 104 -36 159 -59 125 -178
213 -322 235 -73 12 -85 12 -153 1z"/>
<path d="M1093 3305 c-175 -47 -295 -177 -325 -353 -40 -235 129 -463 372
-501 285 -45 541 215 491 498 -24 131 -105 256 -205 315 -93 54 -224 70 -333
41z"/>
</g>
</svg>
